<svg width="46" height="28" xmlns="http://www.w3.org/2000/svg">
 <g>
  <title>Bike</title>
  <path fill="#ffffff" id="svg_1" d="m37.074158,10.192219c-0.998199,0 -1.957298,0.167442 -2.854298,0.471043c-0.695526,-1.541921 -1.508343,-3.346042 -2.460083,-5.463881l0.607201,-1.6698l2.087021,-0.03818l0,-1.7457l-7.855883,0c-0.687239,0.94024 0.278299,0.9361 3.75728,1.70752l-0.607199,1.707981l-15.521778,0c1.045583,-3.651941 0.45494,-3.386061 5.161198,-3.377781l0,-1.78342c-6.478638,0.06302 -5.355318,-0.667 -8.824638,10.4926c-0.530838,-0.0989 -1.077779,-0.15318 -1.637599,-0.15318c-4.921539,0 -8.92538,4.0043 -8.92538,8.925838s4.003841,8.925381 8.92538,8.925381c4.922001,0 8.925839,-4.003838 8.925839,-8.925381c0,-3.68276 -2.242498,-6.8517 -5.433519,-8.213299c0.194119,-0.610879 0.402961,-1.263159 0.62698,-1.960061c13.057558,13.772861 8.159019,11.540019 15.185516,11.81924c0.033579,0 0.065784,-0.000458 0.09936,-0.000919c0.832142,4.065941 4.437164,7.133678 8.744602,7.133678c4.921997,0 8.925842,-4.003838 8.925842,-8.925379s-4.003845,-8.9263 -8.925842,-8.9263l0,0zm-21.310878,9.07304c0,3.770161 -3.06728,6.83744 -6.837441,6.83744s-6.837899,-3.06728 -6.837899,-6.83744s3.06728,-6.837438 6.83744,-6.837438c0.339939,0 0.673901,0.025759 1.000499,0.074059c-2.178099,6.868719 -1.91682,6.086718 -1.930158,6.665857c-0.010581,0.488522 0.383639,0.875843 0.87952,0.909424c0.888721,-0.09016 0.68862,0.057037 2.909499,-7.020061c2.345999,1.083759 3.97854,3.457818 3.97854,6.208158zm8.813598,-0.425499l-10.799418,-11.76864l15.188739,-0.02714l-4.38932,11.79578zm3.572361,0.247021l-1.660603,-0.00506l4.308821,-11.310481l1.67164,3.70392c-2.578758,1.559402 -4.308357,4.386559 -4.319859,7.611621zm5.18742,-5.68974l2.577835,5.71182l-5.677315,-0.016102c0.009201,-2.380957 1.241541,-4.478098 3.09948,-5.695718zm3.737499,12.558921c-3.15284,0 -5.81348,-2.14636 -6.60008,-5.054483c7.116667,0.006903 7.751463,0.371681 7.850824,-0.862957c-0.009663,-0.359722 -0.143524,-0.606281 -3.241169,-7.4612c0.629742,-0.192279 1.298126,-0.2967 1.989967,-0.2967c3.770161,0 6.837437,3.06728 6.837437,6.837897s-3.066822,6.837442 -6.836979,6.837442l0,0z"/>
 </g>
</svg>